<?xml version="1.0" encoding="utf-8"?>
<!-- Generator: Adobe Illustrator 22.1.0, SVG Export Plug-In . SVG Version: 6.00 Build 0)  -->
<svg version="1.1" id="Layer_1" xmlns="http://www.w3.org/2000/svg" xmlns:xlink="http://www.w3.org/1999/xlink" x="0px" y="0px"
	 viewBox="0 0 465.8 84.5" style="enable-background:new 0 0 465.8 84.5;" xml:space="preserve">
<style type="text/css">

<!-- 	.st586{fill:#989798;}
	.st587{fill:#C90202;}
	.st588{fill:#C90203;}
	.st589{fill:#CA0303;}
	.st590{fill:#010101;}
	.st591{fill:#989697;}
	.st592{fill:#C90303;}
	.st593{fill:#C80303;}
	.st594{fill:#9A9899;}
	.st595{fill:#030303;}
	.st596{fill:#C90204;}
	.st597{fill:#CA0606;}
	.st598{fill:#D73F43;}
 -->
	path {
		fill :#37447d
	}
</style>
<g>
	<path class="st586" d="M204.4,69.8c-1.2,2.5-1.8,5.1-2.4,7.7c-0.5,1.9-1,3.8-1.5,5.7c0,0.1-0.1,0.3-0.2,0.4
		c-1.1,0.8-2.5,0.3-3.7,0.4c-0.8,0.1-0.8-0.6-1-1.2c-1.2-4.3-2.3-8.6-3.5-13c-0.5,0.5-0.3,1.1-0.3,1.6c0,3.8,0,7.6,0,11.4
		c0,0.9-0.3,1.3-1.2,1.3c-0.9-0.1-1.8-0.1-2.7,0c-1,0.1-1.2-0.3-1.2-1.3c0-6.5,0-13,0-19.5c0-0.9,0.3-1.3,1.2-1.3
		c2.2,0.1,4.4,0,6.6,0c0.7,0,1.1,0.2,1.3,1c0.8,3,1.6,6,2.4,9c0.1,0.4,0.3,0.7,0.7,0.9c0.6-2.2,1.1-4.3,1.7-6.4
		c0.3-1.2,0.6-2.5,0.9-3.7c0.2-0.6,0.6-0.9,1.2-0.8c2.3,0,4.6,0,6.8,0c0.7,0,1,0.3,1,1c0,6.7,0,13.3,0,20c0,0.8-0.3,1-1.1,1
		c-1.3,0-2.7-0.1-4,0c-0.9,0-1.2-0.4-1.1-1.2c0-3.8,0-7.6,0-11.4C204.4,70.8,204.4,70.3,204.4,69.8z"/>
	<path class="st587" d="M0.3,49.2c2.9,6.2,8.5,9,14.2,11.7c2.7,1.3,5.4,2.4,8,3.8c0.6,0.3,1.1,0.6,1.6,1c1.6,1.1,2.6,2.6,2.2,4.6
		c-0.4,2-1.8,3-3.7,3.5c-3.2,0.9-6.4,0.5-9.6-0.1c-4.1-0.7-8.1-1.9-12-3.7C0.4,69.8,0,69.4,0,68.5c0-6.2,0-12.3,0-18.5
		C0,49.8,0,49.5,0.3,49.2z"/>
	<path class="st588" d="M273.9,38.8c0.4-0.4,0.1-0.8,0.1-1.2c0-2.8,0-5.6-0.1-8.3c0-0.8,0.3-1,1.1-1c1.1,0,2.2,0,3.3,0
		c0.8,0,1.1,0.2,1.1,1.1c0,6.5,0,13.1,0,19.6c0,1-0.4,1.2-1.4,1.3c-3,0.4-4.9-0.6-6.2-3.4c-1.5-3.1-3.7-5.7-5.2-8.8
		c-0.1-0.3-0.4-0.5-0.7-0.9c0.4,4,0.1,7.8,0.2,11.6c0,1.2-0.4,1.6-1.6,1.5c-0.8-0.1-1.6-0.1-2.3,0c-1.2,0.1-1.7-0.2-1.7-1.6
		c0.1-6.3,0.1-12.7,0-19c0-1.1,0.4-1.5,1.4-1.4c0.4,0,0.8,0,1.2,0c3.9,0,3.9,0,5.9,3.2c1.5,2.4,2.9,4.7,4.4,7.1
		C273.6,38.7,273.7,38.9,273.9,38.8z"/>
	<path class="st587" d="M363.8,35.1c1.1-3,2.7-5.4,5.9-6.6c4.3-1.5,9.1-0.4,11.5,2.6c0.8,1,1.3,2.2,1.7,3.4c0.2,0.6,0,1.1-0.7,1.1
		c-1.6,0.1-3.2,0.3-4.8,0.4c-0.7,0.1-0.8-0.4-1-0.9c-0.7-1.9-1.5-2.5-2.9-2.4c-1.4,0.1-2.4,0.9-2.8,2.7c-0.6,2.6-0.8,5.3,0.2,7.8
		c0.8,2.2,3.8,2.6,5.3,0.9c0.4-0.4,0.6-0.9,0.4-1.4c-0.2-0.6-0.8-0.4-1.2-0.4c-2.2,0-2.3,0-2.2-2.3c0-2.7-0.4-2.3,2.3-2.3
		c2.1,0,4.2,0,6.3,0c1,0,1.3,0.3,1.3,1.3c0,3.2,0,6.5,0,9.7c0,0.9-0.3,1.3-1.2,1.3c-1.2,0-2.3,0.1-2.6-1.5c-0.1-0.6-0.6-0.5-1-0.2
		c-4.4,3.2-9.7,2.4-13.1-2c-2-3.1-2.3-6.5-1.7-10C363.5,36,363.5,35.5,363.8,35.1z"/>
	<path class="st589" d="M417.5,47.4c-1-1.7-2.1-3.3-3.1-5c-1-1.6-2-3.2-3.1-4.9c0,0.5,0,1,0,1.5c0,3.3,0,6.6,0,9.9
		c0,0.9-0.3,1.4-1.2,1.3c-1.3-0.1-3,0.5-3.8-0.2c-0.9-0.8-0.3-2.5-0.3-3.8c0-5.5,0-11.1,0-16.6c0-1,0.2-1.4,1.3-1.3
		c0.8,0.1,1.7,0.1,2.5,0c2-0.4,3.3,0.5,4.1,2.3c0.4,0.8,0.9,1.6,1.4,2.3c1.1,2.1,2.5,3.9,3.6,5.9c0.1,0.2,0.3,0.5,0.6,0.4
		c0.3-0.1,0.3-0.5,0.2-0.7c-0.6-3-0.1-6-0.3-9c-0.1-0.9,0.2-1.2,1.2-1.2c1,0.1,2.1,0.1,3.1,0c0.7,0,0.9,0.3,0.9,1
		c0,6.6,0,13.1,0,19.7c0,0.8-0.3,1.2-1.1,1.1c-1.1,0-2.3-0.3-3.4,0c-0.6,0.1-0.9-0.4-1.2-0.8C418.3,48.7,417.9,48,417.5,47.4z"/>
	<path class="st586" d="M222.4,61.7c3.1,0,5.8,0.8,7.8,3.4c1.2,1.6,1.1,2.1-0.8,2.6c-0.4,0.1-0.9,0.3-1.3,0.4
		c-1.3,0.5-2.6,0.8-3.6-0.7c-0.5-0.6-1.4-0.8-2.3-0.8c-0.9,0.1-2-0.1-2.2,1.1c-0.2,1.2,0.9,1.4,1.8,1.7c1.6,0.4,3.2,0.7,4.8,1.1
		c4.8,1.3,6.9,6.4,4,10.3c-1.6,2.1-4,3-6.5,3.3c-2.8,0.3-5.6,0.2-8.2-1.3c-1.7-1-2.8-2.5-3.4-4.3c-0.2-0.6,0-1,0.6-1.1
		c1.5-0.3,3-0.5,4.4-0.8c0.5-0.1,0.9,0,1.2,0.6c0.9,1.9,3.8,2.1,5.2,1.6c0.5-0.2,0.9-0.4,1-1c0-0.6-0.3-1-0.7-1.2
		c-1-0.6-2.2-0.7-3.3-0.9c-1.8-0.4-3.5-0.9-5.1-1.8c-3.3-2-3.1-6.9-1.3-9C216.7,62.3,219.4,61.7,222.4,61.7z"/>
	<path class="st586" d="M101.4,61.7c2.6,0,5.3,0.6,7.3,3c0.4,0.5,0.7,1,1,1.5c0.3,0.6,0.2,1-0.5,1.2c-1.1,0.3-2.3,0.7-3.4,1
		c-0.7,0.2-1.3,0.1-1.8-0.5c-0.9-1.2-2.3-1.5-3.7-1.3c-0.6,0.1-1.3,0.3-1.4,1.1c-0.1,0.8,0.4,1.2,1,1.4c1.8,0.5,3.5,0.9,5.3,1.3
		c2.6,0.6,4.6,1.9,5.2,4.6c0.8,3.5-0.4,6.2-3.7,7.9c-3.7,2-10.9,2-13.9-1.8c-0.1-0.2-0.3-0.3-0.4-0.5c-1.8-2.3-1.5-3,1.3-3.5
		c0.6-0.1,1.2-0.3,1.7-0.3c1-0.2,1.8-0.1,2.6,0.9c0.9,1.4,3.4,1.8,5,1.2c1-0.4,1.2-1.3,0.3-2c-0.8-0.7-1.8-0.7-2.7-0.9
		c-1.4-0.3-2.7-0.7-4.1-1.1c-2.5-0.8-4.1-2.5-4.4-5.1c-0.4-3,1-5.3,3.6-6.8C97.4,61.9,99.2,61.7,101.4,61.7z"/>
	<path class="st586" d="M139.5,84.2c-2.2,0.1-4.3-0.3-6.2-1.3c-1.8-1-2.8-2.6-3.6-4.3c-0.3-0.6,0-0.9,0.6-1.1
		c1.6-0.3,3.1-0.6,4.7-0.9c0.6-0.1,0.8,0.3,1,0.7c1.2,1.8,2.9,2.1,4.8,1.7c0.7-0.1,1.3-0.4,1.3-1.3c0-0.8-0.6-1.2-1.3-1.4
		c-1.4-0.4-2.7-0.6-4.1-1c-0.7-0.2-1.4-0.4-2.1-0.7c-2.6-0.9-4-2.7-4.2-5.4c-0.2-2.6,0.9-4.8,3.2-6.2c3.3-2.1,9.1-1.9,12.3,0.5
		c0.9,0.6,1.5,1.5,2,2.4c0.4,0.7,0.3,1.2-0.6,1.4c-1.1,0.3-2.1,0.6-3.1,1c-0.8,0.3-1.4,0.2-2-0.6c-0.9-1.2-2.8-1.6-4.1-1
		c-0.5,0.2-1,0.5-0.9,1.2c0,0.6,0.4,0.9,0.9,1.1c1.8,0.5,3.6,0.9,5.4,1.4c2.1,0.6,4.1,1.5,4.9,3.7c1.8,4.4-0.8,8.8-5.8,9.8
		C141.7,84.1,140.5,84.3,139.5,84.2z"/>
	<path class="st590" d="M101,50.4c-3,0.1-5.8-0.5-8-2.8c-0.8-0.8-1.3-1.8-1.7-2.8c-0.3-0.6-0.3-1.1,0.6-1.2c0.8-0.1,1.6-0.3,2.4-0.4
		c1.5-0.2,3-0.9,4,1.1c0.6,1.1,3.5,1.3,4.7,0.7c0.5-0.2,0.7-0.6,0.7-1.1c0-0.6-0.3-1.1-0.9-1.3c-1.3-0.4-2.6-0.6-3.8-1
		c-0.9-0.2-1.8-0.5-2.7-0.9c-2.6-0.9-4.1-2.7-4.2-5.5c-0.1-3,1.3-5.2,3.9-6.5c3.3-1.5,6.6-1.5,10-0.1c1.6,0.7,2.7,1.9,3.6,3.4
		c0.4,0.7,0.4,1.2-0.5,1.4c-0.8,0.2-1.5,0.4-2.2,0.7c-1.3,0.5-2.3,0.8-3.4-0.6c-0.7-1-2.2-1-3.4-0.7c-0.6,0.1-1.1,0.4-1.2,1.1
		c-0.1,0.8,0.4,1.2,1.1,1.4c1.4,0.4,2.9,0.7,4.4,1.1c1.9,0.5,3.7,0.9,5,2.5c2.7,3.3,1.3,8.4-2.9,10.4
		C104.8,50.1,103.4,50.4,101,50.4z"/>
	<path class="st590" d="M113.3,39.1c0-3.2,0-6.4,0-9.6c0-1,0.2-1.4,1.3-1.4c4.7,0.1,9.3,0.1,14,0c1,0,1.3,0.3,1.3,1.3
		c0,3.6,0,3.6-3.6,3.6c-1.7,0-3.5,0.1-5.2,0c-0.9,0-1.2,0.3-1.1,1.2c0,0.3,0,0.6,0,1c-0.1,1,0.3,1.3,1.2,1.2c1.9-0.1,3.7,0,5.6,0
		c0.9,0,1.2,0.3,1.2,1.2c0.1,3.7,0.1,3.7-3.7,3.7c-0.8,0-1.6-0.1-2.3,0c-0.6,0.1-1.6-0.4-1.9,0.3c-0.4,0.9-0.2,1.9,0,2.8
		c0.1,0.5,0.7,0.4,1,0.4c2.5,0,4.9,0.1,7.4,0c1.1,0,1.5,0.4,1.4,1.4c-0.1,0.9-0.1,1.7,0,2.6c0,0.9-0.3,1.3-1.3,1.3
		c-4.7,0-9.4,0-14.1,0c-0.9,0-1.2-0.3-1.2-1.2C113.3,45.7,113.3,42.4,113.3,39.1z"/>
	<path class="st591" d="M167.5,72.9c0-3.2,0-6.4,0-9.6c0-1,0.2-1.4,1.4-1.4c4.6,0.1,9.2,0.1,13.8,0c1,0,1.4,0.3,1.3,1.3
		c-0.1,0.8-0.1,1.6,0,2.5c0.1,1-0.4,1.2-1.3,1.2c-2.4,0-4.8,0.1-7.3,0c-1.3-0.1-1.4,0.6-1.4,1.6c0,1,0,1.8,1.4,1.7
		c1.8-0.1,3.6,0,5.3,0c1.1,0,1.4,0.4,1.4,1.5c-0.1,4.3,0.3,3.4-3.5,3.5c-1.2,0-2.4,0-3.6,0c-0.8,0-1.2,0.3-1.1,1.1
		c0,0.4,0,0.8,0,1.2c-0.1,0.9,0.3,1.2,1.2,1.2c2.4,0,4.8,0,7.3,0c1,0,1.4,0.2,1.4,1.4c0,3.9,0,3.9-3.9,3.9c-3.7,0-7.4,0-11.1,0
		c-1.2,0-1.5-0.4-1.5-1.6C167.5,79.2,167.5,76.1,167.5,72.9z"/>
	<path class="st592" d="M449.3,39.2c0-3.2,0-6.4,0-9.6c0-1.1,0.3-1.4,1.4-1.4c4.6,0.1,9.2,0,13.8,0c1,0,1.3,0.3,1.3,1.3
		c0,3.6,0,3.6-3.6,3.6c-1.7,0-3.5,0-5.2,0c-0.9,0-1.2,0.2-1.2,1.2c0,2.2-0.1,2.2,2.1,2.2c1.6,0,3.3,0,4.9,0c0.8,0,1,0.3,1,1
		c0.2,3.9,0.2,3.9-3.7,3.9c-1.1,0-2.2,0-3.3,0c-0.8,0-1.2,0.3-1.1,1.1c0,0.3,0,0.6,0,1c-0.1,1.1,0.3,1.5,1.4,1.5
		c2.4-0.1,4.8,0,7.3,0c1,0,1.3,0.3,1.3,1.2c0.1,4,0.1,4-3.9,4c-3.7,0-7.5,0-11.2,0c-1.1,0-1.4-0.3-1.4-1.4
		C449.3,45.6,449.3,42.4,449.3,39.2C449.3,39.2,449.3,39.2,449.3,39.2z"/>
	<path class="st593" d="M298.7,39.1c0-3.1,0-6.3,0-9.4c0-1,0.2-1.4,1.4-1.4c4.6,0.1,9.2,0,13.8,0c1,0,1.4,0.2,1.3,1.3
		c0,3.6,0,3.6-3.6,3.6c-1.7,0-3.4,0.1-5.1,0c-1.5-0.1-1.2,0.9-1.3,1.8c0,0.9-0.1,1.6,1.2,1.6c1.9-0.1,3.7,0,5.6,0
		c0.9,0,1.2,0.2,1.2,1.1c0.1,3.8,0.1,3.8-3.6,3.8c-1.1,0-2.2,0-3.3,0c-0.8,0-1.2,0.3-1.1,1.1c0,0.4,0,0.7,0,1.1
		c-0.1,1,0.3,1.4,1.3,1.4c2.4-0.1,4.7,0.1,7.1,0c1.3-0.1,1.6,0.4,1.5,1.6c-0.1,0.9,0,1.8,0,2.7c0,0.7-0.3,1-1,1c-4.8,0-9.7,0-14.5,0
		c-0.9,0-1-0.5-1-1.2C298.7,45.7,298.7,42.4,298.7,39.1C298.7,39.1,298.7,39.1,298.7,39.1z"/>
	<path class="st592" d="M386.7,39.2c0-3.2,0-6.5,0-9.7c0-1,0.3-1.3,1.2-1.2c4.7,0,9.3,0,14,0c1,0,1.4,0.2,1.4,1.3
		c0,3.6,0,3.6-3.5,3.6c-1.7,0-3.5,0-5.2,0c-0.9,0-1.2,0.3-1.2,1.2c0,2.1-0.1,2.1,2.1,2.1c1.5,0,3,0.1,4.5,0c1.1-0.1,1.4,0.4,1.4,1.4
		c0,3.5,0,3.5-3.5,3.5c-1.1,0-2.3,0-3.4,0c-0.8,0-1.1,0.3-1.1,1c0,0.1,0,0.2,0,0.3c-0.1,2.3-0.1,2.3,2.2,2.3c2.1,0,4.3,0,6.4,0
		c0.9,0,1.3,0.2,1.3,1.2c0.1,4,0.1,4-4,4c-3.7,0-7.3-0.1-11,0c-1.2,0-1.7-0.3-1.6-1.6C386.8,45.5,386.7,42.3,386.7,39.2z"/>
	<path d="M153,36.6c0-2.4,0.1-4.7,0-7.1c0-1.1,0.3-1.3,1.3-1.3c1.4,0.1,2.7,0.1,4.1,0c1.2-0.1,1.4,0.4,1.4,1.5
		c-0.1,4.2,0,8.3,0,12.5c0,2.6,1.3,3.6,3.8,3c1.3-0.3,2-1.1,2-2.5c0-4.4,0.1-8.8,0-13.1c0-1,0.2-1.3,1.3-1.3c4,0,4,0,4,3.9
		c0,3.6,0,7.1,0,10.7c0,4.2-1.8,6.5-5.9,7.3c-2.7,0.6-5.5,0.5-8.2-0.7c-2.5-1.1-3.8-3-3.9-5.6C152.9,41.5,153,39,153,36.6
		C153,36.6,153,36.6,153,36.6z"/>
	<path class="st590" d="M147.3,36.9c-0.3,0-0.6,0-1,0c-1.2,0.2-2.1,0.1-2.1-1.5c0-1.4-1.2-2.4-2.5-2.5c-1.3-0.1-2.3,0.6-2.8,2.2
		c-0.9,2.7-0.8,5.5-0.2,8.2c0.4,1.6,1.4,2.3,2.8,2.3c1.4,0,2.4-0.8,2.7-2.4c0.2-1,0.7-1.1,1.5-1.1c1.2,0.1,2.5,0.2,3.7,0.2
		c1.1,0,1.2,0.5,1,1.4c-0.7,3.5-3.7,6.3-7.2,6.8c-6.9,0.9-11.8-3.3-11.9-10.3c-0.1-3.4,0.5-6.7,2.9-9.3c2.9-3.1,6.6-3.5,10.5-2.4
		c3.4,0.9,5,3.6,5.7,6.9c0.2,1-0.1,1.6-1.2,1.5C148.7,36.7,148,36.8,147.3,36.9C147.3,36.9,147.3,36.9,147.3,36.9z"/>
	<path class="st592" d="M443.3,36.9c-0.3,0-0.6,0-0.8,0c-1.3,0.2-2.2,0.1-2.3-1.7c-0.1-1.3-1-2.3-2.4-2.4c-1.3-0.1-2.3,0.6-2.8,2.2
		c-0.8,2.8-0.8,5.7,0,8.5c0.3,1.2,1.2,2,2.6,2c1.4,0,2.4-0.8,2.7-2.1c0.3-1.4,0.9-1.5,2.1-1.4c1.1,0.2,2.2,0.1,3.3,0.1
		c0.9,0,1.1,0.3,1,1.2c-0.7,3.8-3.9,6.7-7.7,7c-6.8,0.5-11.2-3.5-11.3-10.3c-0.1-3.5,0.5-6.8,2.9-9.4c2.9-3.1,6.6-3.4,10.4-2.3
		c3.5,1,5.1,3.6,5.8,7c0.2,0.9,0,1.4-1.1,1.4C444.8,36.7,444.1,36.8,443.3,36.9C443.3,36.9,443.3,36.9,443.3,36.9z"/>
	<path class="st586" d="M117.5,79.3c0-0.9,0-1.8,0-2.7c0-1.3-0.4-2.5-1.1-3.6c-2-3.3-3.9-6.6-5.8-9.9c-0.4-0.7-0.3-1.1,0.6-1.1
		c1.8,0,3.6,0,5.3,0c0.8,0,1.1,0.5,1.4,1.1c0.8,1.6,1.7,3.2,2.6,4.8c0.2,0.3,0.2,0.8,0.6,0.8c0.5,0,0.6-0.5,0.8-0.8
		c0.8-1.6,1.7-3.2,2.5-4.9c0.3-0.7,0.7-1.1,1.6-1c1.1,0.1,2.3,0,3.4,0c1.2,0,1.3,0.2,0.7,1.4c-1.7,3.2-3.4,6.3-5.2,9.4
		c-0.7,1.2-1.1,2.4-1,3.9c0.1,2,0,4,0,6c0,0.9-0.2,1.2-1.2,1.2c-1.4-0.1-2.7-0.1-4.1,0c-0.9,0-1.2-0.3-1.2-1.2
		C117.5,81.6,117.5,80.4,117.5,79.3C117.5,79.3,117.5,79.3,117.5,79.3z"/>
	<path d="M233.4,35.4c1.1-2.2,2.1-4,3-5.9c0.4-0.9,0.9-1.3,2-1.2c1.1,0.1,2.2,0.1,3.3,0c0.9,0,1.3,0.1,0.7,1.1
		c-1.9,3.4-3.7,6.8-5.6,10.2c-0.5,0.9-0.8,1.8-0.7,2.8c0.1,2.2,0,4.5,0,6.7c0,0.8-0.3,1.1-1.1,1.1c-1.3-0.1-2.6-0.1-3.8,0
		c-1.4,0.1-1.6-0.5-1.6-1.7c0.1-2.1,0-4.3,0-6.4c0-0.8-0.2-1.5-0.6-2.2c-2.1-3.5-4.1-7-6.2-10.5c-0.5-0.9-0.4-1.2,0.6-1.2
		c1.7,0,3.4,0,5.1,0c0.8,0,1.1,0.3,1.5,0.9C231.1,31.2,232.2,33.1,233.4,35.4z"/>
	<path class="st592" d="M335.8,39c0-3.2,0-6.4,0-9.6c0-1,0.3-1.3,1.2-1.2c1.3,0.1,2.7,0.1,4,0c1.3-0.1,1.6,0.5,1.6,1.7
		c-0.1,4.5,0,8.9-0.1,13.4c0,1.1,0.3,1.5,1.4,1.5c2-0.1,3.9,0,5.9,0c1,0,1.4,0.3,1.4,1.3c0.1,4.2,0.1,4.2-4.1,4.2
		c-3.3,0-6.6,0-9.9,0c-1.1,0-1.5-0.3-1.5-1.4C335.8,45.5,335.8,42.3,335.8,39z"/>
	<path class="st592" d="M318,39.1c0-3.1,0-6.3,0-9.4c0-1,0.2-1.5,1.4-1.4c1.4,0.1,2.7,0.1,4.1,0c1-0.1,1.3,0.3,1.3,1.3
		c0,4.5,0,9-0.1,13.6c0,1.2,0.3,1.7,1.6,1.6c2-0.1,3.9,0,5.9,0c0.9,0,1.2,0.3,1.2,1.2c0,1.1,0,2.2,0,3.3c0,0.7-0.3,1-1,1
		c-4.5,0-8.9,0-13.4,0c-1,0-1-0.5-1-1.2C318,45.7,318,42.4,318,39.1C318,39.1,318,39.1,318,39.1z"/>
	<path class="st594" d="M154.6,75.8c0-2.4,0-4.7,0-7.1c0-1-0.4-1.3-1.3-1.3c-3.2-0.1-3.2-0.1-3.2-3.3c0-0.3,0-0.6,0-0.8
		c-0.1-1.1,0.3-1.4,1.4-1.4c4.2,0.1,8.5,0.1,12.7,0c1,0,1.5,0.3,1.3,1.3c0,0.1,0,0.2,0,0.3c0,1.2,0.4,2.6-0.2,3.5
		c-0.6,1-2.2,0.3-3.3,0.4c-1,0.1-0.9,0.6-0.9,1.3c0,3.3,0,6.6,0,9.9c0,1.2-0.1,2.5-0.1,3.7c0.1,1.6-0.7,1.8-1.9,1.7
		c-1-0.1-2-0.1-3,0c-1.3,0.1-1.5-0.4-1.5-1.6C154.6,80.2,154.6,78,154.6,75.8z"/>
	<path class="st595" d="M210.7,41.8c0-2.3,0-4.7,0-7c0-0.8-0.1-1.3-1.1-1.2c-1.1,0-2.5,0.5-3.2-0.2c-0.7-0.8-0.2-2.2-0.3-3.3
		c0-1.8,0-1.8,1.9-1.8c4.1,0,8.2,0,12.3,0c1,0,1.4,0.3,1.3,1.3c-0.1,1-0.1,1.9,0,2.9c0.1,1-0.3,1.2-1.3,1.2c-3.4,0-3.4,0-3.4,3.5
		c0,3.9,0,7.8,0,11.7c0,1.1-0.3,1.6-1.5,1.5c-1.1-0.1-2.3-0.1-3.4,0c-1.3,0.1-1.6-0.4-1.5-1.6C210.8,46.3,210.7,44.1,210.7,41.8z"/>
	<path class="st596" d="M292.2,41.9c0,2.3,0,4.7,0,7c0,1-0.3,1.3-1.3,1.3c-1.2-0.1-2.5-0.1-3.7,0c-1.1,0.1-1.4-0.3-1.4-1.4
		c0-4.5,0-8.9,0-13.4c0-1.8,0-1.8-1.8-1.8c-2.9,0-2.9,0-2.8-2.8c0-2.6,0-2.6,2.6-2.6c3.8,0,7.6,0.1,11.4,0c1.3,0,1.7,0.4,1.6,1.6
		c-0.1,1.2,0.5,2.6-0.3,3.4c-0.7,0.8-2.2,0.3-3.3,0.3c-0.9,0-1.1,0.3-1.1,1.1C292.2,37.1,292.2,39.5,292.2,41.9z"/>
	<path class="st592" d="M256.7,39.2c0,3.2,0,6.4,0,9.6c0,1-0.2,1.5-1.4,1.4c-1.4-0.1-2.8-0.1-4.2,0c-0.8,0-1.2-0.2-1.2-1.1
		c0-6.6,0-13.2,0-19.8c0-0.8,0.3-1,1-1c1.6,0,3.1,0.1,4.7,0c0.9,0,1.1,0.3,1.1,1.1C256.7,32.6,256.7,35.9,256.7,39.2
		C256.7,39.2,256.7,39.2,256.7,39.2z"/>
	<path class="st597" d="M360.2,39.3c0,3.1-0.1,6.2,0,9.3c0,1.3-0.4,1.7-1.7,1.6c-1.4-0.1-2.7,0-4.1,0c-0.7,0-1-0.2-1-1
		c0-6.7,0-13.4,0-20.1c0-0.6,0.2-0.8,0.8-0.8c1.7,0,3.4,0,5.1,0c0.9,0,0.9,0.6,0.9,1.2C360.2,32.7,360.2,36,360.2,39.3z"/>
	<path class="st49" d="M197.1,39.2c0-3.2,0-6.5,0-9.7c0-1.1,0.4-1.6,1.5-1.5c1.5,0,3,0,4.5,0c1,0,1.4,0.3,1.4,1.4
		c0,6.6,0,13.1,0,19.7c0,1.1-0.4,1.5-1.4,1.4c-1.5-0.1-2.9-0.1-4.4,0c-1.2,0.1-1.6-0.3-1.6-1.5C197.1,45.7,197.1,42.4,197.1,39.2z"
		/>
	<path class="st598" d="M417.5,47.4c0.1,0,0.3,0,0.4,0.1c1,3.1,3.6,2.3,5.8,2.3c0.9,0,0.7-0.7,0.7-1.2c0-3.3,0-6.7,0-10c0-3,0-6,0-9
		c0-0.8-0.2-1.1-1.1-1.1c-3.8-0.1-3.9-0.1-3.8,3.7c0,2.4-0.3,4.7,0.5,7.1c0.1,0.3,0.1,0.7-0.3,0.8c-0.3,0.1-0.6-0.1-0.7-0.3
		c-1-2.3-2.7-4.3-3.9-6.6c-0.1-0.1,0-0.3,0-0.4c1.6,1.8,2.6,4,4.1,6.1c0.3-0.6,0-1.1,0-1.6c0-2.7,0-5.4-0.1-8.1c0-0.8,0.3-1.1,1.1-1
		c0.1,0,0.2,0,0.3,0c1.4,0.1,3.1-0.6,4,0.3c0.9,0.8,0.3,2.6,0.3,3.9c0,5.4,0,10.9,0,16.3c0,1.4-0.4,1.8-1.7,1.6
		c-0.5-0.1-1-0.1-1.5,0C419.1,50.8,418.2,49.2,417.5,47.4z"/>
	<path class="st599" d="M363.8,35.1c0.1,1.6-0.5,3.2-0.4,4.9c0.1,2.4,0.9,4.5,1.8,6.6c-1.1-0.9-1.5-2.2-1.7-3.4
		C362.9,40.4,362.6,37.7,363.8,35.1z"/>
	<path class="st587" d="M84.7,1.6c0-1.2-0.3-1.6-1.6-1.6C56,0,28.8,0,1.6,0C0.4,0,0,0.3,0,1.6c0,10,0,19.9,0,29.9
		c0,0.4-0.1,0.8,0.3,1.2c0.6-0.9,1.2-1.9,1.9-2.8c3.6-4.6,8.6-6.8,14.2-7.7c9.3-1.5,18.3,0.1,26.9,3.7c0.7,0.3,0.9,0.6,0.6,1.3
		c-1.6,3.9-3.2,7.9-4.7,11.8c-0.3,0.8-0.6,0.8-1.3,0.5c-1.6-0.7-3.3-1.4-5-1.9c-4-1.4-8.1-2.2-12.4-1.7c-1.9,0.2-3.7,1.6-4,3.1
		c-0.4,1.9,0.5,3.3,2,4.3c1.2,0.9,2.5,1.5,3.8,2.2c4.1,2.1,8.3,3.9,12.4,6.1c12,6.5,11.2,20.5,6.2,27.6c-1.4,1.9-3.1,3.4-4.9,4.9
		c0.1,0.1,0.1,0.2,0.2,0.4c3.2,0,6.4,0,9.5,0c1.8,0,1.8,0,1.8-1.8c0-14.1,0-28.1,0-42.2c0-1.8,0-1.8,1.8-1.8c4.7,0,9.3,0.1,14,0
		c1.4,0,1.7,0.4,1.7,1.8c-0.1,14.2,0,28.3-0.1,42.5c0,1.2,0.3,1.6,1.6,1.6c5.6-0.1,11.1-0.1,16.7,0c1.4,0,1.7-0.4,1.7-1.7
		C84.7,55.7,84.7,28.7,84.7,1.6z M58.4,33.7c-0.8,0.1-1.5,0.1-2.1,0.1c-1.6-0.1-2.9-0.1-4.3-0.5c-5.2-1.6-7-8.9-3.2-12.8
		c1.3-1.3,3.1-1.7,4.8-2c2.6-0.4,5.2-0.2,7.7,0.7c1.7,0.6,2.9,1.8,3.5,3.4C66.5,27.4,65.3,33,58.4,33.7z"/>
	<path d="M190.7,41.9c-0.4-0.9-0.3-1.3,0.6-1.9c2.8-1.8,3.8-5.9,1.9-8.7c-1.5-2.3-3.8-3.1-6.4-3.1c-3.7,0-7.4,0-11.1,0
		c-0.9,0-1.1,0.3-1.1,1.2c0,3.2,0,6.5,0,9.7c0,3.3,0,6.6,0,9.9c0,0.9,0.3,1.2,1.2,1.2c1.5-0.1,2.9-0.1,4.4,0c0.9,0,1.2-0.3,1.2-1.2
		c0-1.9,0-3.8,0-5.8c0-0.6-0.3-1.4,0.7-1.5c0.8-0.1,1.5,0,1.8,1c0.7,2,1.5,4,2.3,6c0.3,1,0.8,1.5,2,1.4c1.5-0.1,3.1-0.1,4.7,0
		c1.2,0.1,1.3-0.4,0.9-1.4C192.7,46.5,191.7,44.2,190.7,41.9z M185.9,36.9c-1.3,0.5-2.6,0.3-3.9,0.3c-0.5,0-0.6-0.4-0.6-0.8
		c0-0.5,0-1,0-1.5c0,0,0,0,0,0c0-0.5,0-0.9,0-1.4c0-0.5,0.2-0.8,0.7-0.8c1.2,0,2.4-0.1,3.5,0.2c1,0.3,1.4,0.9,1.5,1.9
		C187.2,35.8,186.7,36.5,185.9,36.9z"/>
	<path class="st590" d="M204,39.2c0,3.1,0,6.3,0,9.4c0,1-0.2,1.4-1.3,1.4c-1.3-0.1-2.6,0-4,0c-0.8,0-1.2-0.2-1.2-1.1
		c0-6.5,0-13,0-19.6c0-0.9,0.4-1.1,1.2-1.1c1.4,0,2.7,0.1,4.1,0c0.9,0,1.2,0.3,1.2,1.2C203.9,32.8,204,36,204,39.2z"/>
</g>
</svg>
